<svg width="25" height="25" viewBox="0 0 25 25" fill="none" xmlns="http://www.w3.org/2000/svg">
<path d="M3.125 1.63475C2.7106 1.63475 2.31317 1.80698 2.02015 2.11355C1.72712 2.42013 1.5625 2.83593 1.5625 3.26949V16.3475C1.5625 16.781 1.72712 17.1968 2.02015 17.5034C2.31317 17.81 2.7106 17.9822 3.125 17.9822H18.1031C18.9319 17.9824 19.7266 18.327 20.3125 18.9402L23.4375 22.2097V3.26949C23.4375 2.83593 23.2729 2.42013 22.9799 2.11355C22.6868 1.80698 22.2894 1.63475 21.875 1.63475H3.125ZM21.875 0C22.7038 0 23.4987 0.344463 24.0847 0.957612C24.6708 1.57076 25 2.40237 25 3.26949V24.1828C25 24.3445 24.9541 24.5026 24.8681 24.6371C24.7822 24.7715 24.6601 24.8762 24.5172 24.938C24.3743 24.9998 24.2172 25.0158 24.0656 24.9841C23.914 24.9524 23.7748 24.8744 23.6656 24.7599L19.2078 20.0959C18.9149 19.7893 18.5175 19.617 18.1031 19.617H3.125C2.2962 19.617 1.50134 19.2725 0.915291 18.6593C0.32924 18.0462 0 17.2146 0 16.3475V3.26949C0 2.40237 0.32924 1.57076 0.915291 0.957612C1.50134 0.344463 2.2962 0 3.125 0L21.875 0Z" fill="#999999"/>
</svg>
